<svg width="70" height="52" viewBox="0 0 70 52" fill="none" xmlns="http://www.w3.org/2000/svg">
<path d="M17.3192 51.9575C12.5433 51.9575 8.4633 50.2527 5.07924 46.8429C1.69308 43.4332 0 39.2658 0 34.3407C0 30.1191 1.23333 26.3576 3.7 23.0561C6.16667 19.7547 9.39434 17.6439 13.383 16.7238C14.6951 11.7446 17.3192 7.71244 21.2553 4.62747C25.1915 1.54249 29.6525 0 34.6383 0C40.7788 0 45.9871 2.20495 50.2634 6.61484C54.5417 11.0269 56.6809 16.3991 56.6809 22.7314C60.3022 23.1644 63.3073 24.774 65.6963 27.5602C68.0832 30.3486 69.2767 33.61 69.2767 37.3445C69.2767 41.4036 67.8995 44.8545 65.1453 47.697C62.3889 50.5373 59.0426 51.9575 55.1065 51.9575H37.7873V28.739L40.6213 31.5804C41.1986 32.1758 41.9208 32.4734 42.7878 32.4734C43.6527 32.4734 44.4001 32.1487 45.0298 31.4992C45.6072 30.9039 45.8958 30.1462 45.8958 29.2261C45.8958 28.306 45.6072 27.5483 45.0298 26.953L36.8426 18.5099C36.2128 17.8604 35.4781 17.5357 34.6383 17.5357C33.7986 17.5357 33.0639 17.8604 32.4341 18.5099L24.2468 26.953C23.6695 27.5483 23.3683 28.2919 23.3431 29.1839C23.3158 30.078 23.6171 30.8498 24.2468 31.4992C24.8241 32.0946 25.5453 32.4063 26.4102 32.4345C27.2772 32.4605 28.0256 32.1758 28.6554 31.5804L31.4894 28.739V51.9575H17.3192Z" fill="#FF7F0A"/>
</svg>
